<svg width="26" height="23" viewBox="0 0 26 23" fill="none" xmlns="http://www.w3.org/2000/svg">
<path d="M12.6667 8.46667C12.6667 5.85309 12.6667 4.5463 13.1753 3.54804C13.6227 2.66995 14.3366 1.95605 15.2147 1.50864C16.213 1 17.5198 1 20.1333 1H20.6C21.9068 1 22.5602 1 23.0593 1.25432C23.4984 1.47802 23.8553 1.83498 24.079 2.27402C24.3333 2.77315 24.3333 3.42654 24.3333 4.73333V14.7667C24.3333 16.0735 24.3333 16.7268 24.079 17.226C23.8553 17.665 23.4984 18.022 23.0593 18.2457C22.5602 18.5 21.9068 18.5 20.6 18.5H18.996C17.535 18.5 16.8045 18.5 16.1415 18.7014C15.5544 18.8796 15.0083 19.1719 14.5344 19.5615C13.999 20.0015 13.5938 20.6093 12.7834 21.8249L12.6667 22L12.5499 21.8249C11.7395 20.6093 11.3343 20.0015 10.799 19.5615C10.325 19.1719 9.77889 18.8796 9.19187 18.7014C8.52879 18.5 7.79829 18.5 6.33729 18.5H4.73333C3.42654 18.5 2.77315 18.5 2.27402 18.2457C1.83498 18.022 1.47802 17.665 1.25432 17.226C1 16.7268 1 16.0735 1 14.7667V4.73333C1 3.42654 1 2.77315 1.25432 2.27402C1.47802 1.83498 1.83498 1.47802 2.27402 1.25432C2.77315 1 3.42654 1 4.73333 1H5.2C7.81358 1 9.12037 1 10.1186 1.50864C10.9967 1.95605 11.7106 2.66995 12.158 3.54804C12.6667 4.5463 12.6667 5.85309 12.6667 8.46667ZM12.6667 22V8.46667" stroke="#F4B400" stroke-width="2" stroke-linecap="round" stroke-linejoin="round"/>
</svg>
